<svg id="visual" viewBox="0 0 900 600" width="900" height="600" xmlns="http://www.w3.org/2000/svg" xmlns:xlink="http://www.w3.org/1999/xlink" version="1.1"><rect width="900" height="600" fill="#FFFFFF"></rect><g><g transform="translate(119 420)"><path d="M0 -48.6L21.1 -43.8L38 -30.3L47.4 -10.8L47.4 10.8L38 30.3L21.1 43.8L0 48.6L-21.1 43.8L-38 30.3L-47.4 10.8L-47.4 -10.8L-38 -30.3L-21.1 -43.8Z" fill="#0e4539"></path></g><g transform="translate(252 43)"><path d="M0 -24L10.4 -21.6L18.8 -15L23.4 -5.3L23.4 5.3L18.8 15L10.4 21.6L0 24L-10.4 21.6L-18.8 15L-23.4 5.3L-23.4 -5.3L-18.8 -15L-10.4 -21.6Z" fill="#0e4539"></path></g><g transform="translate(752 102)"><path d="M0 -46L20 -41.4L36 -28.7L44.8 -10.2L44.8 10.2L36 28.7L20 41.4L0 46L-20 41.4L-36 28.7L-44.8 10.2L-44.8 -10.2L-36 -28.7L-20 -41.4Z" fill="#0e4539"></path></g><g transform="translate(380 556)"><path d="M0 -36L15.6 -32.4L28.1 -22.4L35.1 -8L35.1 8L28.1 22.4L15.6 32.4L0 36L-15.6 32.4L-28.1 22.4L-35.1 8L-35.1 -8L-28.1 -22.4L-15.6 -32.4Z" fill="#0e4539"></path></g></g></svg>