<svg id="visual" viewBox="0 0 900 600" width="900" height="600" xmlns="http://www.w3.org/2000/svg" xmlns:xlink="http://www.w3.org/1999/xlink" version="1.1"><rect width="900" height="600" fill="#FFFFFF"></rect><g><g transform="translate(5 75)"><path d="M0 -48.6L21.1 -43.8L38 -30.3L47.4 -10.8L47.4 10.8L38 30.3L21.1 43.8L0 48.6L-21.1 43.8L-38 30.3L-47.4 10.8L-47.4 -10.8L-38 -30.3L-21.1 -43.8Z" fill="#0e4539"></path></g><g transform="translate(820 537)"><path d="M0 -29L12.6 -26.1L22.7 -18.1L28.3 -6.5L28.3 6.5L22.7 18.1L12.6 26.1L0 29L-12.6 26.1L-22.7 18.1L-28.3 6.5L-28.3 -6.5L-22.7 -18.1L-12.6 -26.1Z" fill="#0e4539"></path></g><g transform="translate(462 41)"><path d="M0 -26L11.3 -23.4L20.3 -16.2L25.3 -5.8L25.3 5.8L20.3 16.2L11.3 23.4L0 26L-11.3 23.4L-20.3 16.2L-25.3 5.8L-25.3 -5.8L-20.3 -16.2L-11.3 -23.4Z" fill="#0e4539"></path></g><g transform="translate(886 44)"><path d="M0 -25L10.8 -22.5L19.5 -15.6L24.4 -5.6L24.4 5.6L19.5 15.6L10.8 22.5L0 25L-10.8 22.5L-19.5 15.6L-24.4 5.6L-24.4 -5.6L-19.5 -15.6L-10.8 -22.5Z" fill="#0e4539"></path></g><g transform="translate(254 205)"><path d="M0 -29L12.6 -26.1L22.7 -18.1L28.3 -6.5L28.3 6.5L22.7 18.1L12.6 26.1L0 29L-12.6 26.1L-22.7 18.1L-28.3 6.5L-28.3 -6.5L-22.7 -18.1L-12.6 -26.1Z" fill="#0e4539"></path></g><g transform="translate(778 417)"><path d="M0 -35L15.2 -31.5L27.4 -21.8L34.1 -7.8L34.1 7.8L27.4 21.8L15.2 31.5L0 35L-15.2 31.5L-27.4 21.8L-34.1 7.8L-34.1 -7.8L-27.4 -21.8L-15.2 -31.5Z" fill="#0e4539"></path></g><g transform="translate(124 565)"><path d="M0 -41L17.8 -36.9L32.1 -25.6L40 -9.1L40 9.1L32.1 25.6L17.8 36.9L0 41L-17.8 36.9L-32.1 25.6L-40 9.1L-40 -9.1L-32.1 -25.6L-17.8 -36.9Z" fill="#0e4539"></path></g><g transform="translate(726 137)"><path d="M0 -38L16.5 -34.2L29.7 -23.7L37 -8.5L37 8.5L29.7 23.7L16.5 34.2L0 38L-16.5 34.2L-29.7 23.7L-37 8.5L-37 -8.5L-29.7 -23.7L-16.5 -34.2Z" fill="#0e4539"></path></g><g transform="translate(877 293)"><path d="M0 -44L19.1 -39.6L34.4 -27.4L42.9 -9.8L42.9 9.8L34.4 27.4L19.1 39.6L0 44L-19.1 39.6L-34.4 27.4L-42.9 9.8L-42.9 -9.8L-34.4 -27.4L-19.1 -39.6Z" fill="#0e4539"></path></g><g transform="translate(582 83)"><path d="M0 -34L14.8 -30.6L26.6 -21.2L33.1 -7.6L33.1 7.6L26.6 21.2L14.8 30.6L0 34L-14.8 30.6L-26.6 21.2L-33.1 7.6L-33.1 -7.6L-26.6 -21.2L-14.8 -30.6Z" fill="#0e4539"></path></g><g transform="translate(246 377)"><path d="M0 -39L16.9 -35.1L30.5 -24.3L38 -8.7L38 8.7L30.5 24.3L16.9 35.1L0 39L-16.9 35.1L-30.5 24.3L-38 8.7L-38 -8.7L-30.5 -24.3L-16.9 -35.1Z" fill="#0e4539"></path></g></g></svg>